<svg xmlns="http://www.w3.org/2000/svg">
<defs>
<font
       horiz-adv-x="1024"
       id="font3933"
       inkscape:label="font 1">
      <font-face
         units-per-em="1024"
         id="font-face3935"
         font-family="geo405_font" />
      <missing-glyph
         d="m 261.27766,712.5 0,-474.99997"
         id="missing-glyph3937" />
      <glyph
         glyph-name="glyph 1"
         id="glyph3939"
         unicode="a"
         d="m 496.80664,1027.0751 c -278.87063,0 -500.0000262,-227.85887 -500.0000262,-500.01731 0,-272.15843 221.1293962,-499.98266 500.0000262,-499.98266 278.8706,0 499.99997,227.82423 499.99997,499.98266 0,272.15844 -221.12937,500.01731 -499.99997,500.01731 z m 0,-144.77376 c 187.58797,0 344.59662,-155.06203 344.59662,-355.24355 0,-200.18151 -157.00865,-355.24354 -344.59662,-355.24354 -187.58798,0 -344.59663,155.06203 -344.59663,355.24354 0,200.18152 157.00865,355.24355 344.59663,355.24355 z" />
      <glyph
         glyph-name="glyph 2"
         id="glyph3941"
         unicode="b"
         d="M 182.33094,701.64704 C 79.317868,701.64704 2.5e-6,619.41816 2.5e-6,523.98434 c 0,-95.43381 79.3178645,-177.63139 182.3309375,-177.63139 103.01306,0 182.29575,82.19758 182.29575,177.63139 0,95.43382 -79.28269,177.6627 -182.29575,177.6627 z m 0,-75.12164 c 51.73126,0 97.86699,-43.23053 97.86699,-102.54106 0,-59.31052 -46.13573,-102.50974 -97.86699,-102.50974 -51.73126,0 -97.902182,43.19922 -97.902182,102.50974 0,59.31053 46.170922,102.54106 97.902182,102.54106 z m 457.84029,257.30336 c -200.6805,0 -359.82875,-163.88533 -359.82875,-359.84909 0,-195.96376 159.14825,-359.80843 359.82875,-359.80843 200.6805,0 359.82877,163.84467 359.82877,359.80843 0,195.96376 -159.14827,359.84909 -359.82877,359.84909 z m 0,-97.60825 c 138.71363,0 254.67972,-114.6528 254.67972,-262.24084 0,-147.58804 -115.96609,-262.20018 -254.67973,-262.20018 -138.71361,0 -254.67972,114.61214 -254.67972,262.20018 0,147.58804 115.96611,262.24084 254.67972,262.24084 z" />
      <glyph
         glyph-name="glyph 3"
         id="glyph3943"
         unicode="c"
         d="m 275,174 300,0 0,-150 -300,0 z m 150,850 300,0 0,-149.99999 -300,0 z m 0,0 150,0 0,-1000 -150,0 z" />
      <glyph
         glyph-name="glyph 4"
         id="glyph3945"
         unicode="d"
         d="M 500,1024 C 221.1293,1024 0,796.12719 0,523.96875 0,251.81032 221.1293,24 500,24 778.87055,24 1000,251.81032 1000,523.96875 1000,796.12719 778.87055,1024 500,1024 z m 0,-144.78125 c 23.55844,0 46.62539,-2.45135 68.96875,-7.125 l 0,-696.21875 C 546.62539,171.20221 523.55844,168.75 500,168.75 c -23.92146,0 -47.33526,2.49735 -70,7.3125 l 0,695.84375 c 22.66474,4.81515 46.07854,7.3125 70,7.3125 z M 718.96875,798.625 c 76.34089,-64.49552 125.625,-162.49538 125.625,-274.65625 0,-112.15545 -49.2904,-210.13799 -125.625,-274.625 l 0,549.28125 z M 280,797.75 280,250.21875 c -75.7489,64.50338 -124.59375,162.09941 -124.59375,273.75 0,111.6506 48.84485,209.27787 124.59375,273.78125 z" />
      <glyph
         glyph-name="glyph 5"
         id="glyph3947"
         unicode="e"
         d="m 425,1024 0,-204.8125 -159.75,0 c -36.15033,0 -65.25,-29.09967 -65.25,-65.25 l 0,-19.5 c 0,-36.15033 29.09967,-65.25 65.25,-65.25 l 159.75,0 0,-302.6875 -159.75,0 C 229.09967,366.5 200,337.40033 200,301.25 l 0,-19.5 c 0,-36.15033 29.09967,-65.25 65.25,-65.25 l 159.75,0 0,-192.5 150,0 0,192.5 159.75,0 c 36.15033,0 65.25,29.09967 65.25,65.25 l 0,19.5 c 0,36.15033 -29.09967,65.25 -65.25,65.25 l -159.75,0 0,302.6875 159.75,0 c 36.15033,0 65.25,29.09967 65.25,65.25 l 0,19.5 c 0,36.15033 -29.09967,65.25 -65.25,65.25 l -159.75,0 0,204.8125 -150,0 z" />
      <glyph
         glyph-name="glyph 6"
         id="glyph3949"
         unicode="f"
         d="m 923.53125,1024.7188 a 75.0075,75.0075 0 0 1 -51.5625,-22.6876 l -850,-849.99995 a 75.0075,75.0075 0 1 1 106.0625,-106.0625 l 850,850 a 75.0075,75.0075 0 0 1 -54.5,128.75005 z" />
      <glyph
         glyph-name="glyph 7"
         id="glyph3951"
         unicode="g"
         d="M 0,1024 413.2187,522.46872 0,24.00003 178.3125,26.65622 500,417.12503 821.7187,26.65622 1000,24.00003 586.8125,522.46872 1000,1024 826.875,1021.5312 500,627.21872 173.1563,1021.5312 0,1024 z" />
      <glyph
         glyph-name="glyph 8"
         id="glyph3953"
         unicode="h"
         d="m 476.39763,1024 47.20474,0 C 552.07666,1024 575,1001.0767 575,972.60238 L 575,75.39764 C 575,46.92336 552.07666,24.00002 523.60237,24.00002 l -47.20474,0 C 447.92334,24.00002 425,46.92336 425,75.39764 l 0,897.20474 C 425,1001.0767 447.92334,1024 476.39763,1024 z" />
      <glyph
         glyph-name="glyph 9"
         id="glyph3955"
         unicode="i"
         d="M 499.96624,1019.8845 439.5633,899.05697 252.06426,524.00014 64.565213,149.02105 4.0947424,28.11549 l 120.8732976,0 374.9982,0 374.99808,0 120.94094,0 -60.47069,120.90556 -187.49904,374.97909 -187.49904,375.05683 -60.47025,120.82753 z m 0.0675,-322.33675 127.02857,-254.15129 5.27595,-10.62219 121.75262,-243.45138 -254.12467,0 -254.05726,0 122.83498,245.71628 4.19349,8.35729 127.09632,254.15129 z" />
      <glyph
         glyph-name="glyph 10"
         id="glyph3957"
         unicode="j"
         d="m 850.00003,1024 0,-462.5 -850.000055,0 0,-75 850.000055,0 0,-462.5 149.99997,0 0,462.5 0,75 0,462.5 -149.99997,0 z" />
      <glyph
         glyph-name="glyph 11"
         id="glyph3959"
         unicode="k"
         d="m 462.9843,1022.75 0,-36.2188 0,-424.9687 -428.6562,0 0,-75 428.7188,0 0.8124,-425.09375 0.0626,-36.21875 38.8437,0.0937 c 258.848,0.5755 462.9063,226.88196 462.9063,498.6875 0,272.19697 -204.6234,498.7188 -463.8438,498.7188 l -38.8438,0 z m 77.6876,-74.5938 C 733.2852,926.7421 887.9843,747.83712 887.9843,524.03125 887.9843,300.59475 733.7402,121.84255 541.4843,100 l -0.8124,424.03125 0,0.0625 0,424.06245 z" />
      <glyph
         glyph-name="glyph 12"
         id="glyph3961"
         unicode="l"
         d="m 497.33979,1026.4697 c -278.84159,0 -499.9944092,-226.74074 -499.9944092,-500.02286 0,-273.28211 221.1528192,-499.97718 499.9944092,-499.97718 277.98259,0 498.58581,225.31459 499.9424,497.46726 2e-4,0.0306 -10e-5,0.0607 0,0.0913 a 39.950668,35.194472 0 0 1 0.0517,2.41865 39.950668,35.194472 0 0 1 -0.10375,3.51389 c -1.89272,271.70298 -222.2494,496.50894 -499.89035,496.50894 z m 0,-70.41486 c 229.32422,0 420.11525,-189.49328 420.11525,-429.608 0,-240.11472 -190.79103,-429.56236 -420.11525,-429.56236 -229.32438,0 -420.11558,189.44764 -420.11558,429.56236 0,240.11472 190.7912,429.608 420.11558,429.608 z" />
      <glyph
         glyph-name="glyph 13"
         id="glyph3963"
         unicode="m"
         d="m 497.34375,1026.4688 c -278.84159,0 -500,-226.74918 -500,-500.0313 0,-273.28211 221.15841,-499.96875 500,-499.96875 277.98259,0 498.58091,225.31608 499.9375,497.46875 2e-4,0.0306 -10e-5,0.0631 0,0.0937 a 39.950668,35.194472 0 0 1 0.0625,2.40625 39.950668,35.194472 0 0 1 -0.125,3.53125 C 995.32603,801.67173 774.9847,1026.4688 497.34375,1026.4688 z M 462.5,954.5625 462.5,98.375 C 249.01741,116.41292 77.21875,298.5997 77.21875,526.4375 c 0,227.8378 171.79866,410.08288 385.28125,428.125 z m 75,-0.46875 C 748.51266,933.50357 917.46875,752.38235 917.46875,526.4375 917.46875,300.49265 748.51266,119.42916 537.5,98.84375 l 0,855.25 z" />
      <glyph
         glyph-name="glyph 14"
         id="glyph3965"
         unicode="n"
         d="M 500,1024 C 374.74341,1024 261.12734,978.23404 173.96875,903.0625 l -1,1 L 119.9375,851.03125 120.96875,850 C 45.378959,762.05064 0,647.784 0,523.96875 0,400.162 45.388288,285.93669 120.96875,198 l -1.03125,-1.03125 25.5,-25.46875 27.53125,-27.5625 0.96875,1 C 261.09945,69.76294 374.7311,24 500,24 625.26935,24 738.87935,69.75929 826.03125,144.9375 l 1,-1 53.03125,53.03125 -1.0625,1.0625 c 75.04294,87.33839 120.32526,200.61463 120.9375,323.4375 2e-4,0.0306 -10e-5,0.0631 0,0.0937 A 39.950668,35.194472 0 0 1 1000,523.96875 39.950668,35.194472 0 0 1 999.875,527.5 c -0.85292,122.43867 -46.07553,235.32631 -120.90625,322.4375 l 1.09375,1.09375 L 827.03125,904.0625 826,903.03125 C 738.85727,978.22375 625.27331,1024 500,1024 z m 0,-70.40625 c 103.63959,0 199.40507,-38.72499 273.25,-103.3125 l -273.25,-273.25 -273.25,273.25 c 73.845,64.58751 169.61032,103.3125 273.25,103.3125 z M 174.84375,796.125 446.96875,524 174.8125,251.84375 c -59.17441,73.70181 -94.9375,168.16256 -94.9375,272.125 0,103.9696 35.78704,198.44252 94.96875,272.15625 z m 650.3125,0 C 884.33368,722.41255 920.125,627.93421 920.125,523.96875 920.125,420.01225 884.32454,325.57497 825.15625,251.875 L 553.03125,524 825.15625,796.125 z M 500,470.96875 773.28125,197.6875 C 699.43422,133.10208 603.64683,94.40625 500,94.40625 c -103.64692,0 -199.43415,38.69583 -273.28125,103.28125 L 500,470.96875 z" />
      <glyph
         glyph-name="glyph 15"
         id="glyph3967"
         unicode="o"
         d="m 450,1024 0,-257.28125 C 332.96547,743.70472 247.4375,641.50018 247.4375,523.96875 247.4375,406.43732 332.96547,304.28685 450,281.28125 L 450,24 l 100,0 0,257.3125 c 117.02546,23.01942 202.5625,125.13682 202.5625,242.65625 0,117.51943 -85.53704,219.69091 -202.5625,242.71875 l 0,257.3125 -100,0 z m 49.96875,-347.5625 c 79.05792,0 147.46875,-65.26694 147.46875,-152.46875 0,-87.20181 -68.41083,-152.40625 -147.46875,-152.40625 -79.05792,0 -147.40625,65.20444 -147.40625,152.40625 0,87.20181 68.34833,152.46875 147.40625,152.46875 z" />
      <glyph
         glyph-name="glyph 16"
         id="glyph3969"
         unicode="p"
         d="m 150,1024 0,-100 300,0 0,-800 -300,0 0,-100 300,0 100,0 300,0 0,100 -300,0 0,800 300,0 0,100 -300,0 -100,0 -300,0 z" />
      <glyph
         glyph-name="glyph 17"
         id="glyph3971"
         unicode="q"
         d="m 450,1024 0,-800 100,0 0,800 -100,0 z m 140,-700 0,-300 100,0 0,300 -100,0 z m -280,-1.3125 0,-300 100,0 0,300 -100,0 z" />
      <glyph
         glyph-name="glyph 18"
         id="glyph3973"
         unicode="r"
         d="M 0,1024 0,24 100,24 500,274 900,524 500,774 100,1024 0,1024 z m 900,-500 0,-500 100,0 0,1000 -100,0 0,-500 z" />
      <glyph
         glyph-name="glyph 19"
         id="glyph3975"
         unicode="s"
         d="M 500,774 C 361.92881,774 250,662.07118 250,524 250,385.92881 361.92881,274 500,274 c 138.07117,0 250,111.92881 250,250 0,138.07118 -111.92883,250 -250,250 z" />
      <glyph
         glyph-name="glyph 20"
         id="glyph3977"
         unicode="t"
         d="m 150,1024 0,-100 700,0 0,100 -700,0 z M 0,874 0,174 l 100,0 0,700 -100,0 z m 900,0 0,-700 100,0 0,700 -100,0 z" />
      <glyph
         glyph-name="glyph 21"
         id="glyph3979"
         unicode="u"
         d="m 150,1024 0,-100 700,0 0,100 -700,0 z M 0,874 0,174 l 100,0 0,700 -100,0 z m 900,0 0,-700 100,0 0,700 -100,0 z m -750,-750 0,-100 700,0 0,100 -700,0 z" />
      <glyph
         glyph-name="glyph 22"
         id="glyph3981"
         unicode="v"
         d="m 100,1024 0,-100 650,0 0,100 -650,0 z m 0,-200 0,-100 350,0 0,-700 100,0 0,700 350,0 0,100 -350,0 -100,0 -350,0 z" />
      <glyph
         glyph-name="glyph 23"
         id="glyph3983"
         unicode="w"
         d="m 310,824 0,-600 100,0 0,600 -100,0 z m 290,0 0,-600 100,0 0,600 -100,0 z" />
      <glyph
         glyph-name="glyph 24"
         id="glyph3985"
         unicode="x"
         d="M 289,998.625 201.96875,949.375 442.5625,524 201.96875,98.625 289,49.375 500,422.4375 711,49.375 798.03125,98.625 557.4375,524 798.03125,949.375 711,998.625 500,625.5625 289,998.625 z" />
      <glyph
         glyph-name="glyph 25"
         id="glyph3987"
         unicode="y"
         d="m 450,824 0,-600 100,0 0,600 -100,0 z" />
      <glyph
         glyph-name="glyph 26"
         id="glyph3989"
         unicode="z"
         d="M 499.99413,1024.5762 C 225.96536,1024.5762 0.56155353,799.89165 0.56155353,523.98837 0.56155353,248.0851 225.96536,23.4336 499.99413,23.4336 c 274.02888,0 499.43269,224.6515 499.43269,500.55477 0,275.90328 -225.40381,500.58783 -499.43269,500.58783 z m 0,-201.16557 c 167.79904,0 300.57933,-133.49773 300.57933,-299.42226 0,-165.92452 -132.78029,-299.42225 -300.57933,-299.42225 -167.79892,0 -300.57932,133.49773 -300.57932,299.42225 0,165.92453 132.7804,299.42226 300.57932,299.42226 z" />
      <glyph
         glyph-name="glyph 27"
         id="glyph3991"
         unicode="A"
         d="M 500,1022.125 C 220.59327,1022.125 -2.03125,797.02842 -2.03125,524 -2.03125,250.97159 220.59327,25.875 500,25.875 c 279.40673,0 502.0312,225.09659 502.0312,498.125 10e-5,273.02842 -222.62447,498.1251 -502.0312,498.125 z m 0,-46.25 C 745.2638,975.875 947.96875,775.64211 947.96875,524 947.96875,272.35789 745.2638,72.125 500,72.125 254.7362,72.125 52.03125,272.35789 52.03125,524 52.03125,775.64211 254.7362,975.875 500,975.875 z M 500,874 C 306.70034,874 150,717.29966 150,524 150,330.70034 306.70034,174 500,174 c 193.29966,0 350,156.70034 350,350 0,193.29966 -156.70034,350 -350,350 z" />
      <glyph
         glyph-name="glyph 28"
         id="glyph3993"
         unicode="B"
         d="M 500,1025.0938 C 226.13646,1025.0938 1.03125,801.34904 1.03125,524 1.03125,246.65096 226.13646,22.9062 500,22.9062 c 273.86353,0 498.96875,223.74476 498.96875,501.0938 0,277.34904 -225.10522,501.0938 -498.96875,501.0938 z m 0,-102.18755 c 204.56101,0 371.03753,-150.53157 397.40625,-344.8125 L 608.75,744.75 349.875,894.21875 c 46.26606,18.4951 96.90731,28.6875 150.125,28.6875 z M 301.4375,835.59375 571.25,679.78125 841.09375,524 571.25,368.21875 301.4375,212.40625 l 0,311.59375 0,311.59375 z m -75,-19.5 0,-292.09375 0,-292.09375 C 147.8025,304.83337 98.96875,408.84663 98.96875,524 c 0,115.15338 48.83375,219.16663 127.46875,292.09375 z M 897.40625,469.90625 C 871.03753,275.62533 704.56101,125.09375 500,125.09375 c -53.21769,0 -103.85894,10.1924 -150.125,28.6875 L 608.75,303.25 897.40625,469.90625 z" />
      <glyph
         glyph-name="glyph 29"
         id="glyph3995"
         unicode="C"
         d="m 0,824 0,-37.5 0,-525 0,-37.5 37.5,0 925,0 37.5,0 0,37.5 0,525 0,37.5 -37.5,0 -925,0 L 0,824 z M 155.15625,749 925,749 925,341.4375 155.15625,749 z M 75,706.5625 844.84375,299 75,299 75,706.5625 z" />
      <glyph
         glyph-name="glyph 30"
         id="glyph3997"
         unicode="D"
         d="m 450,1024 0,-700 -200,0 0,-100 200,0 100,0 200,0 0,100 -200,0 0,700 -100,0 z m -200,-900 0,-100 500,0 0,100 -500,0 z" />
      <glyph
         glyph-name="glyph 31"
         id="glyph3999"
         unicode="E"
         d="m 0,774 0,-37.5 0,-425 0,-37.5 37.5,0 925,0 37.5,0 0,37.5 0,425 0,37.5 -37.5,0 -925,0 -37.5,0 z m 75,-75 850,0 0,-350 -850,0 0,350 z" />
      <glyph
         glyph-name="glyph 32"
         id="glyph4001"
         unicode="F"
         d="M 0,849 0,811.21875 0,800.25 0,524 0,247.75 0,236.78125 0,199 l 37.5,0 925,0 37.5,0 0,37.78125 0,10.96875 0,276.25 0,276.25 0,10.96875 0,37.78125 -37.5,0 -925,0 -37.5,0 z m 103.9375,-97.5 792.125,0 L 750,667.59375 500,524 750,380.40625 896.0625,296.5 103.9375,296.5 250,380.40625 500,524 250,667.59375 103.9375,751.5 z" />
      <glyph
         glyph-name="glyph 33"
         id="glyph4003"
         unicode="G"
         d="m 0,824 0,-37.5 0,-525 0,-37.5 37.5,0 925,0 37.5,0 0,37.5 0,525 0,37.5 -37.5,0 -925,0 -37.5,0 z m 75,-75 850,0 0,-450 -850,0 0,450 z m 62.5,-62.5 0,-37.5 0,-250 0,-37.5 37.5,0 650,0 37.5,0 0,37.5 0,250 0,37.5 -37.5,0 -650,0 -37.5,0 z m 75,-75 575,0 0,-175 -575,0 0,175 z" />
      <glyph
         glyph-name="glyph 34"
         id="glyph4005"
         unicode="H"
         d="m 225,1024 550,0 0,-1000 -550,0 z" />
      <glyph
         glyph-name="glyph 35"
         id="glyph4007"
         unicode="I"
         d="m 225,1024 0,-37.5 0,-925 0,-37.5 37.5,0 475,0 37.5,0 0,37.5 0,925 0,37.5 -37.5,0 -475,0 -37.5,0 z m 75,-75 399,0 L 500,755.25 300,560.5 300,949 z M 300,487.5 500,292.75 699,99 l -399,0 0,388.5 z" />
      <glyph
         glyph-name="glyph 36"
         id="glyph4009"
         unicode="J"
         d="m 225,1024 0,-500 0,-500 c 303.7566,0 550,223.85762 550,500 0,276.14238 -246.2434,500 -550,500 z" />
      <glyph
         glyph-name="glyph 37"
         id="glyph4011"
         unicode="K"
         d="M 933,1024 500,774 67,524 500,274 933,24 l 0,500 0,500 z" />
      <glyph
         glyph-name="glyph 38"
         id="glyph4013"
         unicode="L"
         d="M 500,1020.5 C 217.36645,1020.5 -3.875,794.53107 -3.875,524 -3.875,253.46893 217.36645,27.5 500,27.5 c 282.63355,0 503.875,225.96893 503.875,496.5 0,270.53107 -221.24145,496.5 -503.875,496.5 z m 0,-68 C 728.22982,952.50009 921.125,764.33235 921.125,524 921.125,283.66765 728.22982,95.5 500,95.5 272.58243,95.5 80.241183,282.33214 78.875,521.4375 L 390,337.96875 l 315.46875,-186 0,372.03125 0,372.03125 L 390,710.03125 78.875,526.5625 C 80.241183,765.66786 272.58243,952.5 500,952.5 z" />
      <glyph
         glyph-name="glyph 39"
         id="glyph4015"
         unicode="M"
         d="m 225,1024 0,-37.5 0,-13.25 0,-465.625 0,-446.125 0,-19.5 0,-18 37.5,0 475,0 37.5,0 0,37.5 0,925 0,37.5 -37.5,0 -475,0 -37.5,0 z M 346.75,949 700,949 700,99 407.9375,99 C 526.115,178.08935 606.25,331.43435 606.25,507.625 606.25,712.78827 497.60741,886.95601 346.75,949 z" />
      <glyph
         glyph-name="glyph 40"
         id="glyph4017"
         unicode="N"
         d="M 0,1024 0,24 l 1000,0 0,1000 -1000,0 z" />
      <glyph
         glyph-name="glyph 41"
         id="glyph4019"
         unicode="O"
         d="M 0,1024 0,986.5 0,61.5 0,24 l 37.5,0 925,0 37.5,0 0,37.5 0,925 0,37.5 -37.5,0 -925,0 -37.5,0 z m 75,-75 849.25,0 C 853.36676,878.14733 689.6412,714.14091 500,524 L 76.125,99 75,99 75,949 z" />
      <glyph
         glyph-name="glyph 42"
         id="glyph4021"
         unicode="P"
         d="M 500,1025.3438 C 226.32752,1025.3438 1.28125,801.94887 1.28125,524 1.28125,246.05113 226.32752,22.6562 500,22.6562 c 273.67253,0 498.71875,223.39493 498.71875,501.3438 0,277.94887 -225.04622,501.3438 -498.71875,501.3438 z m 0,-77.68755 c 153.18783,0 286.32437,-79.55243 361.40625,-198.65625 l -23.90625,0 -675,0 -23.90625,0 C 213.67564,868.10382 346.81221,947.65625 500,947.65625 z M 125,725.8125 125,711.5 l 0,-375 0,-14.3125 C 92.253856,382.2839 73.71875,451.0754 73.71875,524 c 0,72.92535 18.534483,141.71332 51.28125,201.8125 z m 750,0 C 907.74676,665.71332 926.28125,596.92535 926.28125,524 926.28125,451.0754 907.74614,382.2839 875,322.1875 l 0,14.3125 0,375 0,14.3125 z M 200,674 l 600,0 0,-300 -600,0 0,300 z m -61.40625,-375 23.90625,0 675,0 23.90625,0 C 786.32437,179.90134 653.18783,100.34375 500,100.34375 346.81221,100.34375 213.67564,179.90134 138.59375,299 z" />
      <glyph
         glyph-name="glyph 43"
         id="glyph4023"
         unicode="Q"
         d="m 0,799 0,-37.5 0,-475 0,-37.5 37.5,0 925,0 37.5,0 0,37.5 0,475 0,37.5 -37.5,0 -925,0 -37.5,0 z m 75,-75 850,0 0,-400 -850,0 0,400 z m 425,-22.9375 c -93.16914,0 -173,-77.28514 -173,-177.0625 0,-99.77736 79.83086,-177.0625 173,-177.0625 93.16914,0 173,77.28514 173,177.0625 0,99.77736 -79.83086,177.0625 -173,177.0625 z m 0,-79.125 c 58.70924,0 102,-45.83655 102,-97.9375 0,-52.10095 -43.29076,-97.9375 -102,-97.9375 -58.70924,0 -102,45.83655 -102,97.9375 0,52.10095 43.29076,97.9375 102,97.9375 z" />
      <glyph
         glyph-name="glyph 44"
         id="glyph4025"
         unicode="R"
         d="m 0,799 0,-37.5 0,-475 0,-37.5 37.5,0 925,0 37.5,0 0,37.5 0,475 0,37.5 -37.5,0 -925,0 -37.5,0 z m 75,-75 850,0 0,-400 -850,0 0,400 z m 250,-25 0,-37.5 0,-275 0,-37.5 37.5,0 275,0 37.5,0 0,37.5 0,275 0,37.5 -37.5,0 -275,0 -37.5,0 z m 75,-75 200,0 0,-200 -200,0 0,200 z" />
      <glyph
         glyph-name="glyph 45"
         id="glyph4027"
         unicode="S"
         d="m 509.46765,1023.9962 c -36.99628,-0.5306 -70.97732,-9.2845 -101.9375,-26.25 -31.9592,-17.51359 -56.59105,-43.13527 -73.90625,-76.875 -17.3154,-33.74041 -25.96875,-73.2774 -25.96875,-118.59375 0,-41.55691 7.6636,-80.44267 23,-116.65625 15.3364,-36.21379 37.70715,-63.87249 67.09375,-82.96875 29.38644,-19.09631 67.50633,-28.65624 114.40625,-28.65625 45.31634,10e-6 83.66549,12.44615 115.03125,37.28125 31.36505,24.83503 53.08461,60.89189 65.15625,108.1875 L 634.7489,733.9962 c -7.91592,-36.60961 -23.0451,-64.21101 -45.40625,-82.8125 -22.36176,-18.60164 -49.68183,-27.90629 -81.9375,-27.90625 -26.51735,-4e-5 -51.14917,6.8456 -73.90625,20.5 -22.75741,13.65428 -39.5277,34.26936 -50.3125,61.875 -10.7851,27.60538 -16.15635,59.90079 -16.15625,96.90625 -10e-5,28.69369 4.55325,56.55035 13.65625,83.5625 9.1028,27.01154 24.88316,48.53311 47.34375,64.5625 22.46025,16.02862 50.40027,24.06212 83.84375,24.0625 29.08945,-3.8e-4 53.24196,-7.24199 72.4375,-21.6875 19.19493,-14.44627 33.81356,-37.49432 43.90625,-69.15625 l 56.71875,13.375 c -11.67586,40.17114 -32.3795,71.33603 -62.0625,93.5 -29.68369,22.16315 -66.27715,33.21825 -109.8125,33.21875 -1.19971,0 -2.40032,0.017 -3.59375,0 z m -9.46875,-550 c -125.47786,0 -225,-102.02307 -225,-225 0,-122.97692 99.52214,-225 225,-225 125.09134,0 224.35828,101.40635 224.96875,223.875 9e-5,0.0139 -5e-5,0.0172 0,0.0312 a 17.97768,15.837509 0 0 1 0.0312,1.0938 17.97768,15.837509 0 0 1 -0.0625,1.59375 C 724.08459,372.85627 624.93647,473.9962 499.9989,473.9962 z m -15.6875,-32.34375 0,-385.28125 c -96.06655,8.11704 -173.375,90.09801 -173.375,192.625 0,102.527 77.30845,184.5373 173.375,192.65625 z m 33.75,-0.21875 c 94.95508,-9.26559 171,-90.76232 171,-192.4375 0,-101.67514 -76.04492,-183.14282 -171,-192.40625 l 0,384.84375 z" />
      <glyph
         glyph-name="glyph 46"
         id="glyph4029"
         unicode="T"
         d="m 223.78125,736.5 0,-475 75,0 0,475 -75,0 z m 473.375,0 0,-475 75,0 0,475 -75,0 z m -234.65625,0 0,-475 75,0 0,475 -75,0 z M 0,774 0,736.5 0,261.5 0,224 l 37.5,0 925,0 37.5,0 0,37.5 0,475 0,37.5 -37.5,0 -925,0 -37.5,0 z m 75,-75 850,0 0,-400 -850,0 0,400 z" />
      <glyph
         glyph-name="glyph 47"
         id="glyph4031"
         unicode="U" />
      <glyph
         glyph-name="glyph 48"
         id="glyph4033"
         unicode="V" />
      <glyph
         glyph-name="glyph 49"
         id="glyph4035"
         unicode="W" />
      <glyph
         glyph-name="glyph 50"
         id="glyph4037"
         unicode="X" />
      <glyph
         glyph-name="glyph 51"
         id="glyph4039"
         unicode="Y" />
      <glyph
         glyph-name="glyph 52"
         id="glyph4041"
         unicode="Z" />
      <glyph
         glyph-name="glyph 53"
         id="glyph4043"
         unicode="0" />
      <glyph
         glyph-name="glyph 54"
         id="glyph4045"
         unicode="1" />
      <glyph
         glyph-name="glyph 55"
         id="glyph4047"
         unicode="2"
         d="m 0,799 0,-37.5 0,-475 0,-37.5 37.5,0 925,0 37.5,0 0,37.5 0,475 0,37.5 -37.5,0 -925,0 -37.5,0 z m 75,-75 850,0 0,-400 -850,0 0,400 z m 250,-25 0,-37.5 0,-275 0,-37.5 37.5,0 275,0 37.5,0 0,37.5 0,275 0,37.5 -37.5,0 -275,0 -37.5,0 z m 75,-75 200,0 0,-200 -200,0 0,200 z" />
      <glyph
         glyph-name="glyph 56"
         id="glyph4049"
         unicode="3" />
      <glyph
         glyph-name="glyph 57"
         id="glyph4051"
         unicode="4" />
      <glyph
         glyph-name="glyph 58"
         id="glyph4053"
         unicode="5" />
      <glyph
         glyph-name="glyph 59"
         id="glyph4055"
         unicode="6" />
      <glyph
         glyph-name="glyph 60"
         id="glyph4057"
         unicode="7" />
      <glyph
         glyph-name="glyph 61"
         id="glyph4059"
         unicode="8" />
      <glyph
         glyph-name="glyph 62"
         id="glyph4061"
         unicode="9" />
    </font>
</defs>
</svg>
